# 3ds Max Wavefront OBJ Exporter v0.99 - (c)2007 guruware
# File Created: 06.01.2023 16:23:46

mtllib puerta.mtl

#
# object puerta
#

v  -25.8570 -0.4057 -4.7607
v  -16.3356 -0.4057 -4.7607
v  -16.3356 -0.4057 4.7607
v  -25.8570 -0.4057 4.7607
v  -24.7923 35.2323 -3.6959
v  -24.7923 35.2323 3.6960
v  -17.4004 35.2323 3.6960
v  -17.4004 35.2323 -3.6959
v  -25.8571 31.5537 4.7607
v  -25.8571 31.5537 -4.7607
v  -16.3356 31.5538 4.7607
v  -16.3356 31.5538 -4.7607
v  -26.1585 32.2956 5.0622
v  -26.1585 32.2956 -5.0621
v  -16.0342 32.2956 5.0622
v  -16.0342 32.2956 -5.0621
v  -26.1585 34.1653 5.0622
v  -26.1585 34.1653 -5.0621
v  -16.0342 34.1653 5.0622
v  -16.0342 34.1653 -5.0621
v  42.2314 -0.4057 -4.7607
v  51.7529 -0.4057 -4.7607
v  51.7529 -0.4057 4.7607
v  42.2314 -0.4057 4.7607
v  43.2961 35.2323 -3.6959
v  43.2961 35.2323 3.6960
v  50.6880 35.2323 3.6960
v  50.6880 35.2323 -3.6959
v  42.2314 31.5537 4.7607
v  42.2314 31.5537 -4.7607
v  51.7528 31.5538 4.7607
v  51.7528 31.5538 -4.7607
v  41.9299 32.2956 5.0622
v  41.9299 32.2956 -5.0621
v  52.0542 32.2956 5.0622
v  52.0542 32.2956 -5.0621
v  41.9299 34.1653 5.0622
v  41.9299 34.1653 -5.0621
v  52.0542 34.1653 5.0622
v  52.0542 34.1653 -5.0621
# 40 vertices

vn 0.0000 -1.0000 -0.0000
vn 0.0000 1.0000 -0.0000
vn -1.0000 0.0000 -0.0000
vn 0.0000 0.0000 1.0000
vn 1.0000 0.0000 -0.0000
vn 0.0000 0.0000 -1.0000
vn -0.8930 -0.4501 -0.0000
vn 0.0000 -0.4501 0.8930
vn 0.8930 -0.4501 -0.0000
vn 0.0000 -0.4501 -0.8930
vn -0.5328 0.8462 -0.0000
vn 0.0000 0.8462 0.5328
vn 0.5328 0.8462 -0.0000
vn 0.0000 0.8462 -0.5328
# 14 vertex normals

vt 1.6357 0.6727 0.0000
vt 1.2903 0.6727 0.0000
vt 1.2903 0.3273 0.0000
vt 1.6357 0.3273 0.0000
vt -0.5971 0.6341 0.0000
vt -0.5971 0.3659 0.0000
vt -0.3289 0.3659 0.0000
vt -0.3289 0.6341 0.0000
vt 0.3273 -0.1466 0.0000
vt 0.6727 -0.1466 0.0000
vt 0.6727 1.0131 0.0000
vt 0.3273 1.0131 0.0000
vt -0.6357 -0.1466 0.0000
vt -0.2903 -0.1466 0.0000
vt -0.2903 1.0131 0.0000
vt -0.6358 1.0131 0.0000
vt 1.2903 -0.1466 0.0000
vt 1.6357 -0.1466 0.0000
vt 1.6358 1.0131 0.0000
vt 1.2903 1.0131 0.0000
vt 0.6837 1.0400 0.0000
vt 0.3163 1.0400 0.0000
vt -0.2793 1.0400 0.0000
vt -0.6467 1.0400 0.0000
vt 1.6467 1.0400 0.0000
vt 1.2793 1.0400 0.0000
vt 0.6837 1.1079 0.0000
vt 0.3163 1.1079 0.0000
vt -0.2793 1.1079 0.0000
vt -0.6467 1.1079 0.0000
vt 1.6467 1.1079 0.0000
vt 1.2793 1.1079 0.0000
vt -0.6467 0.6837 0.0000
vt -0.6467 0.3163 0.0000
vt -0.2793 0.3163 0.0000
vt -0.2793 0.6837 0.0000
vt -0.2903 0.6727 0.0000
vt -0.6357 0.6727 0.0000
vt -0.6357 0.3273 0.0000
vt -0.2903 0.3273 0.0000
vt 1.3289 0.6341 0.0000
vt 1.3289 0.3659 0.0000
vt 1.5971 0.3659 0.0000
vt 1.5971 0.6341 0.0000
vt 1.6357 1.0131 0.0000
vt -0.6357 1.0131 0.0000
vt 1.2793 0.6837 0.0000
vt 1.2793 0.3163 0.0000
vt 1.6467 0.3163 0.0000
vt 1.6467 0.6837 0.0000
# 50 texture coords

o puerta
g puerta
usemtl Material__25
s off
f 1/1/1 2/2/1 3/3/1 
f 3/3/1 4/4/1 1/1/1 
f 5/5/2 6/6/2 7/7/2 
f 7/7/2 8/8/2 5/5/2 
f 1/9/3 4/10/3 9/11/3 
f 9/11/3 10/12/3 1/9/3 
f 4/13/4 3/14/4 11/15/4 
f 11/15/4 9/16/4 4/13/4 
f 3/9/5 2/10/5 12/11/5 
f 12/11/5 11/12/5 3/9/5 
f 2/17/6 1/18/6 10/19/6 
f 10/19/6 12/20/6 2/17/6 
f 10/12/7 9/11/7 13/21/7 
f 13/21/7 14/22/7 10/12/7 
f 9/16/8 11/15/8 15/23/8 
f 15/23/8 13/24/8 9/16/8 
f 11/12/9 12/11/9 16/21/9 
f 16/21/9 15/22/9 11/12/9 
f 12/20/10 10/19/10 14/25/10 
f 14/25/10 16/26/10 12/20/10 
f 14/22/3 13/21/3 17/27/3 
f 17/27/3 18/28/3 14/22/3 
f 13/24/4 15/23/4 19/29/4 
f 19/29/4 17/30/4 13/24/4 
f 15/22/5 16/21/5 20/27/5 
f 20/27/5 19/28/5 15/22/5 
f 16/26/6 14/25/6 18/31/6 
f 18/31/6 20/32/6 16/26/6 
f 18/33/11 17/34/11 6/6/11 
f 6/6/11 5/5/11 18/33/11 
f 17/34/12 19/35/12 7/7/12 
f 7/7/12 6/6/12 17/34/12 
f 19/35/13 20/36/13 8/8/13 
f 8/8/13 7/7/13 19/35/13 
f 20/36/14 18/33/14 5/5/14 
f 5/5/14 8/8/14 20/36/14 
usemtl Material__26
f 21/37/1 22/38/1 23/39/1 
f 23/39/1 24/40/1 21/37/1 
f 25/41/2 26/42/2 27/43/2 
f 27/43/2 28/44/2 25/41/2 
f 21/9/3 24/10/3 29/11/3 
f 29/11/3 30/12/3 21/9/3 
f 24/17/4 23/18/4 31/45/4 
f 31/45/4 29/20/4 24/17/4 
f 23/9/5 22/10/5 32/11/5 
f 32/11/5 31/12/5 23/9/5 
f 22/13/6 21/14/6 30/15/6 
f 30/15/6 32/46/6 22/13/6 
f 30/12/7 29/11/7 33/21/7 
f 33/21/7 34/22/7 30/12/7 
f 29/20/8 31/45/8 35/25/8 
f 35/25/8 33/26/8 29/20/8 
f 31/12/9 32/11/9 36/21/9 
f 36/21/9 35/22/9 31/12/9 
f 32/46/10 30/15/10 34/23/10 
f 34/23/10 36/24/10 32/46/10 
f 34/22/3 33/21/3 37/27/3 
f 37/27/3 38/28/3 34/22/3 
f 33/26/4 35/25/4 39/31/4 
f 39/31/4 37/32/4 33/26/4 
f 35/22/5 36/21/5 40/27/5 
f 40/27/5 39/28/5 35/22/5 
f 36/24/6 34/23/6 38/29/6 
f 38/29/6 40/30/6 36/24/6 
f 38/47/11 37/48/11 26/42/11 
f 26/42/11 25/41/11 38/47/11 
f 37/48/12 39/49/12 27/43/12 
f 27/43/12 26/42/12 37/48/12 
f 39/49/13 40/50/13 28/44/13 
f 28/44/13 27/43/13 39/49/13 
f 40/50/14 38/47/14 25/41/14 
f 25/41/14 28/44/14 40/50/14 
# 72 faces

